<?xml version="1.0" encoding="UTF-8"?>
<svg id="Layer_1" xmlns="http://www.w3.org/2000/svg" version="1.1" xmlns:xlink="http://www.w3.org/1999/xlink" viewBox="0 0 1080 320">
  <!-- Generator: Adobe Illustrator 30.1.0, SVG Export Plug-In . SVG Version: 2.1.1 Build 136)  -->
  <defs>
    <style>
      .st0 {
        fill: #fff;
      }

      .st1 {
        fill: none;
      }

      .st2 {
        fill: #64696d;
      }

      .st3 {
        clip-path: url(#clippath);
      }

      .st4 {
        fill: #f58531;
      }

      .st5 {
        fill: #505457;
      }
    </style>
    <clipPath id="clippath">
      <rect class="st1" x="95.93" y="21.04" width="933.66" height="318.9"/>
    </clipPath>
  </defs>
  <g class="st3">
    <path class="st4" d="M223.88,298.77c-70.55,0-127.95-57.4-127.95-127.95s57.4-127.95,127.95-127.95h646.07c70.55,0,127.95,57.4,127.95,127.95s-57.4,127.95-127.95,127.95H223.88Z"/>
    <path class="st2" d="M869.95,278.49H223.88c-59.22,0-107.68-48.45-107.68-107.68s48.46-107.68,107.68-107.68h646.07c59.22,0,107.68,48.45,107.68,107.68s-48.45,107.68-107.68,107.68"/>
    <path class="st4" d="M835.13,228.36l-32.62-70.18-.1-.22c-16.1-34.02-68.18-57.74-104.84-57.74h-116.71c.03,2.64,1.1,47.77,39.79,47.77h76.92c9.92,0,24.97,2.01,37.34,7.97,12.73,6.13,21.07,15.57,24.29,22.37l8.2,17.65-149.3.14,10.18,26.22,8.36,21.54,188.72-.2c3.68,0,7.1-1.88,9.08-4.98,1.97-3.1,2.23-6.99.68-10.33"/>
    <path class="st0" d="M298.61,177.93h-34.75c-3.4,0-6.15,2.75-6.15,6.15v59.37h41.82c15.31,0,30.76-10.65,30.76-34.45s-17.07-31.07-31.68-31.07M299.53,231.15h-29.52v-40.92h28.6c7.24,0,19.38,2.44,19.38,18.77,0,20.56-14.13,22.15-18.46,22.15"/>
    <path class="st0" d="M507.56,197.51h-6.55c-6.52,0-11.29,4.7-11.29,11.38l17.83-.03c7.1,0,10.69,3.46,10.69,10.3,0,11.25-7.06,12.47-10.1,12.47h-24.38v-53.43h-11.35v64.78h35.73c10.68,0,21.45-7.37,21.45-23.82s-11.88-21.65-22.04-21.65"/>
    <path class="st0" d="M372.52,242.98c9.86,0,9.25-11.35,9.25-11.35h-22.85c-3.04,0-10.1-1.22-10.1-12.47,0-6.83,3.6-10.3,10.69-10.3h27.1v34.12h5.68c3.14,0,5.68-2.54,5.68-5.68v-39.79h-38.45c-3.02,0-8.83.53-13.83,4.08-3.74,2.65-8.21,7.86-8.21,17.57,0,16.45,10.77,23.82,21.45,23.82h13.6Z"/>
    <path class="st0" d="M420,242.98v-34.12h23.44c6.87,0,9.18,3.47,9.95,5.54,1.09,2.94,1.46,4.78,1.46,4.78,0,0,2.65.33,5.44-.62,2.97-1.01,4.99-5.45,3.3-9.19-3.11-6.87-10.26-11.86-20.15-11.86h-34.79v45.47h11.35Z"/>
    <path class="st0" d="M456.65,146.11v-11.54h60.86v-12.81c0-5.68-3.6-10.69-13.6-10.69l-36.97.04c-9.61,0-9.29-11.48-9.29-11.48h46.27c2.55,0,9.11.38,15.03,3.93,6.46,3.86,10.02,10.33,10.02,18.2v15.54c0,5.09-3.28,8.81-8.6,8.81h-63.7Z"/>
    <path class="st0" d="M358.31,160.06v5.93h-11.47c-3.26,0-5.93-2.67-5.93-5.93v-5.93h11.47c3.26,0,5.93,2.67,5.93,5.93"/>
    <path class="st0" d="M429.18,147.65c-.04,1.59-.59,7.68-6.92,7.68h-9.46s-1.36,10.66,9.46,10.66c7.29,0,18.36-2.52,18.36-18.72v-48.04h-11.44v48.42Z"/>
    <path class="st0" d="M399.46,99.23v35.16h-70.11l-12.28.1v-13.01c0-4.76,2.47-10.71,11.62-10.71.79,0,3.74,0,4.95-.01h0s1.42-.04,1.42-.04c9.61,0,9.3-11.48,9.3-11.48h-11.19s-.08,0-.08,0h-.03s0,0,0,0c-1.29,0-4.37.04-5.44.14-13.98,1.31-22.67,9.36-22.67,22.1v24.35h105.94v-46.6h-11.44Z"/>
    <path class="st4" d="M1376.74,298.77c-70.55,0-127.95-57.4-127.95-127.95s57.4-127.95,127.95-127.95h871.69c70.55,0,127.95,57.4,127.95,127.95s-57.4,127.95-127.95,127.95h-871.69Z"/>
    <path class="st2" d="M2248.43,278.49h-871.69c-59.22,0-107.68-48.45-107.68-107.68s48.45-107.68,107.68-107.68h871.69c59.22,0,107.68,48.45,107.68,107.68s-48.46,107.68-107.68,107.68"/>
    <path class="st4" d="M2242.56,228.36l-32.62-70.18-.1-.22c-16.1-34.02-68.18-57.74-104.84-57.74h-116.71c.03,2.64,1.1,47.77,39.79,47.77h76.92c9.92,0,24.97,2.01,37.34,7.97,12.73,6.13,21.07,15.57,24.29,22.37l8.2,17.65-149.3.14,10.18,26.22,8.36,21.54,188.72-.2c3.68,0,7.1-1.88,9.07-4.98,1.98-3.1,2.23-6.99.69-10.33"/>
    <path class="st0" d="M1762.09,220.95v-21.43h112.96v-23.78c0-10.55-6.67-19.83-25.24-19.83l-68.62.08c-17.84,0-17.25-21.31-17.25-21.31h85.88c4.73,0,16.9.71,27.89,7.28,11.99,7.17,18.59,19.17,18.59,33.78v28.85c0,9.45-6.09,16.36-15.96,16.36h-118.24Z"/>
    <path class="st0" d="M1579.57,246.83v11.01h-21.29c-6.06,0-11.01-4.96-11.01-11.01v-11.01h21.29c6.06,0,11.01,4.96,11.01,11.01"/>
    <path class="st0" d="M1711.09,223.8c-.07,2.94-1.09,14.26-12.84,14.26h-17.55s-2.53,19.79,17.55,19.79c13.52,0,34.08-4.67,34.08-34.75v-89.16h-21.24v89.86Z"/>
    <path class="st0" d="M1655.93,133.94v65.25h-130.12l-22.8.18v-24.15c0-8.83,4.58-19.88,21.57-19.88,1.47,0,6.93-.01,9.2-.02h0s2.63-.07,2.63-.07c17.84,0,17.25-21.31,17.25-21.31h-20.77,0s-.15,0-.15,0h-.06s0,0,0,0c-2.4,0-8.11.08-10.09.26-25.95,2.42-42.08,17.38-42.08,41.02v45.2h196.64v-86.49h-21.23Z"/>
    <path class="st4" d="M1376.74,609.81c-70.55,0-127.95-57.4-127.95-127.95s57.4-127.95,127.95-127.95h871.69c70.55,0,127.95,57.4,127.95,127.95s-57.4,127.95-127.95,127.95h-871.69Z"/>
    <path class="st2" d="M2248.43,589.54h-871.69c-59.22,0-107.68-48.45-107.68-107.68s48.45-107.68,107.68-107.68h871.69c59.22,0,107.68,48.46,107.68,107.68s-48.46,107.68-107.68,107.68"/>
    <path class="st4" d="M2242.56,539.41l-32.62-70.18-.1-.22c-16.1-34.02-68.18-57.74-104.84-57.74h-116.71c.03,2.64,1.1,47.78,39.79,47.78h76.92c9.92,0,24.97,2.01,37.34,7.97,12.73,6.13,21.07,15.57,24.29,22.37l8.2,17.65-149.3.14,10.18,26.22,8.36,21.54,188.72-.2c3.68,0,7.1-1.88,9.07-4.98,1.98-3.1,2.23-7,.69-10.33"/>
    <path class="st0" d="M1467.54,410.45h-64.5c-6.3,0-11.41,5.11-11.41,11.41v110.2h77.62c28.42,0,57.09-19.77,57.09-63.95s-31.68-57.66-58.8-57.66M1469.25,509.23h-54.8v-75.95h53.09c13.43,0,35.98,4.53,35.98,34.84,0,38.15-26.23,41.12-34.26,41.12"/>
    <path class="st0" d="M1855.37,446.79h-12.15c-12.09,0-20.95,8.72-20.95,21.12l33.1-.05c13.17,0,19.84,6.43,19.84,19.11,0,20.88-13.11,23.14-18.75,23.14h-45.24v-99.17h-21.07v120.24h66.31c19.82,0,39.82-13.67,39.82-44.21s-22.04-40.18-40.91-40.18"/>
    <path class="st0" d="M1604.72,531.18c18.3,0,17.17-21.07,17.17-21.07h-42.41c-5.64,0-18.75-2.26-18.75-23.14,0-12.68,6.68-19.11,19.84-19.11h50.29v63.32h10.53c5.82,0,10.54-4.72,10.54-10.54v-73.85h-71.36c-5.6,0-16.39.98-25.68,7.57-6.95,4.93-15.24,14.59-15.24,32.61,0,30.54,20,44.21,39.82,44.21h25.25Z"/>
    <path class="st0" d="M1692.86,531.18v-63.32h43.5c12.74,0,17.04,6.44,18.47,10.29,2.03,5.45,2.72,8.87,2.72,8.87,0,0,4.9.62,10.09-1.15,5.5-1.88,9.26-10.11,6.11-17.06-5.77-12.74-19.05-22.01-37.4-22.01h-64.57v84.39h21.07Z"/>
    <path class="st5" d="M234.15-655.65h-69.57c-6.8,0-12.31,5.51-12.31,12.31v118.86h83.73c30.66,0,61.58-21.33,61.58-68.97s-34.17-62.2-63.43-62.2M236-549.09h-59.11v-81.93h57.26c14.49,0,38.81,4.88,38.81,37.58,0,41.15-28.29,44.35-36.96,44.35"/>
    <path class="st5" d="M652.49-616.45h-13.11c-13.04,0-22.6,9.41-22.6,22.79l35.71-.05c14.2,0,21.41,6.93,21.41,20.61,0,22.53-14.14,24.96-20.22,24.96h-48.8v-106.97h-22.73v129.7h71.53c21.38,0,42.95-14.74,42.95-47.69s-23.77-43.34-44.13-43.34"/>
    <path class="st5" d="M382.13-525.42c19.74,0,18.52-22.73,18.52-22.73h-45.75c-6.08,0-20.22-2.43-20.22-24.96,0-13.68,7.2-20.62,21.4-20.62h54.25v68.3h11.36c6.27,0,11.36-5.09,11.36-11.36v-79.67h-76.97c-6.04,0-17.67,1.06-27.69,8.16-7.5,5.31-16.44,15.73-16.44,35.18,0,32.94,21.57,47.69,42.95,47.69h27.23Z"/>
    <path class="st5" d="M477.2-525.42v-68.3h46.92c13.75,0,18.38,6.95,19.92,11.1,2.18,5.88,2.93,9.57,2.93,9.57,0,0,5.29.67,10.89-1.25,5.94-2.03,9.99-10.9,6.6-18.4-6.22-13.75-20.55-23.74-40.34-23.74h-69.65v91.03h22.73Z"/>
    <path class="st4" d="M1311.74-558.71l-65.5-140.93-.21-.44c-32.34-68.32-136.91-115.94-210.53-115.94h-234.36c.06,5.3,2.21,95.93,79.91,95.93h154.46c19.92,0,50.14,4.04,74.99,16,25.56,12.3,42.31,31.26,48.77,44.91l16.47,35.44-299.8.28,20.45,52.65,16.8,43.24,378.96-.39c7.38,0,14.25-3.78,18.22-10.01,3.97-6.23,4.49-14.05,1.37-20.74"/>
    <path class="st5" d="M550.57-722.16v-23.11h121.85v-25.65c0-11.38-7.2-21.39-27.22-21.39l-74.03.08c-19.24,0-18.61-22.99-18.61-22.99h92.64c5.09,0,18.23.76,30.08,7.86,12.93,7.73,20.05,20.67,20.05,36.44v31.11c0,10.2-6.57,17.64-17.22,17.64h-127.54Z"/>
    <path class="st5" d="M353.69-694.25v11.88h-22.97c-6.53,0-11.88-5.34-11.88-11.88v-11.88h22.97c6.53,0,11.88,5.34,11.88,11.88"/>
    <path class="st5" d="M495.56-719.09c-.07,3.17-1.17,15.38-13.85,15.38h-18.93s-2.73,21.34,18.93,21.34c14.59,0,36.76-5.04,36.76-37.48v-96.18h-22.91v96.93Z"/>
    <path class="st4" d="M2235.8-557.84l-72.17-155.3-.23-.48c-35.63-75.29-150.86-127.76-231.99-127.76h-258.25c.07,5.97,2.49,105.71,88.05,105.71h170.2c21.95,0,55.25,4.45,82.63,17.63,28.17,13.55,46.63,34.45,53.74,49.49l18.15,39.05-330.35.31,22.53,58.01,18.51,47.66,417.59-.44c8.14,0,15.71-4.17,20.08-11.03,4.37-6.86,4.94-15.47,1.51-22.85"/>
    <path class="st5" d="M436.06-816.02v70.38h-140.36l-24.59.2v-26.05c0-9.53,4.94-21.44,23.27-21.44,1.58,0,7.48-.02,9.92-.03h0s2.83-.07,2.83-.07c19.24,0,18.61-22.99,18.61-22.99h-22.4s-.16,0-.16,0h-.06s0,0,0,0c-2.59,0-8.75.08-10.88.28-27.99,2.61-45.39,18.74-45.39,44.25v48.76h212.11v-93.29h-22.91Z"/>
    <path class="st5" d="M1777.42-260.56h-69.57c-6.8,0-12.31,5.51-12.31,12.31v118.87h83.73c30.65,0,61.58-21.33,61.58-68.98s-34.17-62.2-63.43-62.2M1779.27-154.01h-59.11v-81.93h57.26c14.49,0,38.81,4.88,38.81,37.58,0,41.16-28.29,44.35-36.96,44.35"/>
    <path class="st5" d="M2195.76-221.37h-13.11c-13.04,0-22.6,9.41-22.6,22.79l35.71-.05c14.2,0,21.41,6.93,21.41,20.61,0,22.53-14.14,24.96-20.22,24.96h-48.8v-106.97h-22.73v129.7h71.53c21.38,0,42.95-14.74,42.95-47.69s-23.77-43.34-44.13-43.34"/>
    <path class="st5" d="M1925.4-130.34c19.74,0,18.52-22.73,18.52-22.73h-45.75c-6.08,0-20.22-2.43-20.22-24.96,0-13.68,7.2-20.61,21.4-20.61h54.24v68.3h11.36c6.28,0,11.36-5.09,11.36-11.36v-79.66h-76.97c-6.04,0-17.67,1.06-27.69,8.16-7.5,5.32-16.44,15.73-16.44,35.18,0,32.95,21.57,47.69,42.95,47.69h27.23Z"/>
    <path class="st5" d="M2020.47-130.34v-68.3h46.92c13.75,0,18.39,6.95,19.92,11.1,2.18,5.88,2.93,9.57,2.93,9.57,0,0,5.29.67,10.89-1.24,5.94-2.03,9.99-10.9,6.6-18.4-6.22-13.75-20.55-23.74-40.34-23.74h-69.65v91.03h22.73Z"/>
    <path class="st5" d="M2047.19-324.98v-23.11h121.85v-25.65c0-11.38-7.2-21.39-27.23-21.39l-74.03.09c-19.24,0-18.61-22.99-18.61-22.99h92.64c5.09,0,18.23.77,30.08,7.86,12.93,7.73,20.05,20.67,20.05,36.44v31.11c0,10.2-6.57,17.64-17.22,17.64h-127.54Z"/>
    <path class="st5" d="M1850.31-297.07v11.88h-22.97c-6.53,0-11.88-5.35-11.88-11.88v-11.88h22.97c6.53,0,11.88,5.34,11.88,11.88"/>
    <path class="st5" d="M1992.18-321.91c-.07,3.17-1.17,15.38-13.85,15.38h-18.93s-2.73,21.34,18.93,21.34c14.59,0,36.76-5.03,36.76-37.48v-96.18h-22.91v96.93Z"/>
    <path class="st5" d="M1932.69-418.84v70.38h-140.36l-24.59.2v-26.05c0-9.53,4.94-21.44,23.27-21.44,1.58,0,7.47-.02,9.92-.03h0s2.84-.08,2.84-.08c19.24,0,18.61-22.99,18.61-22.99h-22.4s-.16,0-.16,0h-.06s0,0,0,0c-2.59,0-8.75.08-10.88.28-27.99,2.61-45.39,18.74-45.39,44.25v48.76h212.11v-93.29h-22.91Z"/>
  </g>
</svg>